<?xml version="1.0" encoding="utf-8"?>
<!-- Generator: Adobe Illustrator 21.0.0, SVG Export Plug-In . SVG Version: 6.00 Build 0)  -->
<svg version="1.1" id="图层_1" xmlns="http://www.w3.org/2000/svg" xmlns:xlink="http://www.w3.org/1999/xlink" x="0px" y="0px"
	 viewBox="0 0 200 200" style="enable-background:new 0 0 200 200;" xml:space="preserve">
<path d="M103.3,200H0V0h103.3V200z M28.2,89.8c-5.5,16.6-9.6,28.1-12.2,34.5c-2.6,6.4-6.4,9.9-11.3,10.6c-1.2,0.2-1.8,0.6-1.8,1.4
	c0,0.8,0.7,1.2,2.1,1.2c2.5-0.2,7.3-0.3,14.6-0.3c1.4,0,5.6,0.2,12.4,0.5c0.5-0.3,0.8-0.6,0.8-1c0-0.9-0.8-1.4-2.4-1.5
	c-2.1-0.1-4.3-0.9-6.5-2.2s-3.3-3.4-3.3-6.2c0-3.3,2.2-11.2,6.7-23.8c17.7-0.3,27.7-0.4,29.9-0.4l3.8,11.7
	c2.6,7.8,3.9,12.7,3.9,14.7c0,2-0.7,3.5-2.1,4.5s-3.9,1.6-7.6,2c-1,0.1-1.5,0.5-1.5,1.1c0,0.8,0.7,1.2,2,1.2c2.7-0.3,8.7-0.5,18-0.5
	c6.1,0,11.1,0.2,15.1,0.5l0.9,0.1c0.7,0,1.1-0.3,1.1-1c0-0.9-0.7-1.4-2.1-1.5c-4.5-0.4-7.7-2.4-9.7-6.1c-2-3.7-5.8-13.5-11.2-29.7
	c-8.4-25.2-15.1-43-19.8-53.4h-3C38.8,60.1,33.3,74.6,28.2,89.8z M49.2,79.9c2.9,7.8,5.1,14.1,6.7,18.8l-18.1-0.3
	c-1.9,0-5.1,0.1-9.5,0.3c5.3-16.4,10-29,14-37.6C43.4,64.4,45.7,70.6,49.2,79.9z"/>
<path d="M112.7,124.7c2.4,0,4.5,1,6.5,3.1s3,4.5,3,7.2c0,3.9-1.2,7.8-3.6,11.9c-2.4,4.1-5.1,7.1-8,9.1c-3,2-4.8,3-5.5,3
	c-0.8,0-1.2-0.5-1.2-1.4c0-0.4,0.5-0.8,1.4-1.4c2.1-1.2,4.2-3.3,6.3-6.3c2.1-3,3.1-6,3.1-9.1c0-1.7-0.9-2.6-2.6-2.7
	c-2.7-0.2-4.6-1-5.7-2.4s-1.6-2.7-1.6-4c0-1.8,0.7-3.5,2-4.9C108.4,125.4,110.3,124.7,112.7,124.7z"/>
<path d="M173.7,89c8.4,2.2,14.8,5.3,19,9.3s6.3,8.9,6.3,14.6c0,6.1-2.6,11.8-7.8,17c-5.2,5.2-12.9,7.8-23,7.8c-1.9,0-5-0.1-9.1-0.3
	c-2.7-0.1-4.1-0.2-4.4-0.2c-14,0-23.4,0.1-28.3,0.4c-1.6,0-2.5-0.4-2.5-1.3c0-0.5,0.2-0.8,0.7-1s2.2-0.5,5.3-1.1
	c1.8-0.3,3.2-1.1,4.3-2.3s1.8-3.7,2.4-7.5c0.5-3.8,0.8-9.4,0.8-16.8s0.1-13.3,0.3-17.8s0.3-8,0.3-10.4c0-7.5-0.3-13.5-0.9-18.1
	c-0.6-4.5-1.4-7.4-2.4-8.7c-1-1.2-3.2-2.1-6.4-2.6c-1.3-0.2-2-0.7-2-1.4c0-0.8,0.7-1.2,2-1.2l12.4,0.2c4,0,7.8-0.1,11.4-0.3
	c7.9-0.4,13.1-0.6,15.4-0.6c8.4,0,15.1,1.8,20,5.5s7.4,8.7,7.4,15c0,5-1.6,9.3-4.8,12.9C186.7,83.8,181.3,86.7,173.7,89z
	 M150.3,92.2c-0.6,1.1-1,3.1-1,5.9l-0.5,21.1c0,7.5,0.2,11.6,0.6,12.5c0.4,0.9,1.7,1.6,4,2.2c2.2,0.6,5.8,0.9,10.7,0.9
	c4.3,0,7.8-0.6,10.5-1.8s5.2-3.6,7.5-7.1s3.4-7.8,3.4-12.7c0-7.4-2.2-12.8-6.5-16.2c-4.3-3.5-10.8-5.2-19.3-5.2
	C156.9,91.7,153.8,91.9,150.3,92.2z M150.3,51.6c-0.4,9.9-0.6,18-0.6,24.2l0.1,10.1c0,1.4,0.2,2.2,0.6,2.6c0.4,0.4,1.4,0.5,3.2,0.5
	c8.6,0,15.6-1.6,20.8-4.7c5.2-3.2,7.8-8.5,7.8-15.9c0-6.3-1.9-11-5.8-14.1c-3.9-3.1-8.7-4.7-14.5-4.7
	C158.5,49.6,154.7,50.2,150.3,51.6z"/>
</svg>
