<svg id="图层_1" data-name="图层 1" xmlns="http://www.w3.org/2000/svg" viewBox="0 0 200 143.32"><title>单色6</title><path d="M112.7,116.7a8.72,8.72,0,0,1,6.5,3.1,10.15,10.15,0,0,1,3,7.2,23.37,23.37,0,0,1-3.6,11.9,27.94,27.94,0,0,1-8,9.1c-3,2-4.8,3-5.5,3s-1.2-.5-1.2-1.4c0-.4.5-.8,1.4-1.4a20.79,20.79,0,0,0,6.3-6.3,15.6,15.6,0,0,0,3.1-9.1,2.44,2.44,0,0,0-2.6-2.7q-4-.3-5.7-2.4a6.43,6.43,0,0,1-1.6-4,7.14,7.14,0,0,1,2-4.9A8.53,8.53,0,0,1,112.7,116.7Z" transform="translate(0 -25.68)"/><rect y="137.32" width="200" height="6"/><path d="M200,108.24q0,17-9.39,23.47t-24.05,6.45H137.23V37.84h30.51q14.66,0,22,7.63a25.35,25.35,0,0,1,7.33,18.19q0,10.56-5,15.55a26.65,26.65,0,0,1-10.27,6.75,26.93,26.93,0,0,1,12.61,7.33Q200,98.86,200,108.24ZM183.57,63.65q0-7.62-4.4-11.15A16.83,16.83,0,0,0,168.32,49h-17.6V80.08h17a17.11,17.11,0,0,0,11.15-3.81Q183.57,72.46,183.57,63.65Zm2.35,44.58q0-9.38-6.16-13.2A25.7,25.7,0,0,0,166,91.23H150.72V127h13.49q10.56,0,16.13-4.11T185.92,108.24Z" transform="translate(0 -25.68)"/><path d="M98.7,146.32H0V25.68H98.7ZM55.22,35.26H43.48L14.15,136.74H28.23l8.21-31.09H62.26l8.21,31.09H84.55ZM39.38,94.51l9.39-35.79h1.17l9.39,35.79Z" transform="translate(0 -25.68)"/></svg>