<?xml version="1.0" encoding="utf-8"?>
<!-- Generator: Adobe Illustrator 21.0.0, SVG Export Plug-In . SVG Version: 6.00 Build 0)  -->
<svg version="1.1" id="图层_1" xmlns="http://www.w3.org/2000/svg" xmlns:xlink="http://www.w3.org/1999/xlink" x="0px" y="0px"
	 viewBox="0 0 200 200" style="enable-background:new 0 0 200 200;" xml:space="preserve">
<path d="M107.3,139.7H0V59.3h107.3V139.7z M3,82.3c1.6,0.4,2.9,0.9,3.6,1.6c0.8,0.7,1.5,2.1,2.3,4.2l12.1,32.7h1.5l11-24.8l9.4,24.8
	h1.7l12.6-33.5c1.1-3,2.9-4.6,5.3-5v-1.6H50.6v1.6c1.6,0.1,2.6,0.3,3.1,0.7c0.5,0.4,0.8,0.9,0.8,1.4c0,0.9-0.3,2.1-0.8,3.7
	l-7.9,21.5l-8.6-22.3c-0.2-0.6-0.3-1.2-0.3-1.7c0-1,0.3-1.7,0.8-2.2c0.8-0.7,2.2-1,4.2-1.1v-1.6H24v1.6c1.6,0.1,2.8,0.3,3.4,0.7
	c1.1,0.7,1.9,1.8,2.6,3.5l2.1,5.7L24,110.5L16,88.1c-0.5-1.2-0.7-2.3-0.7-3.2c0-0.8,0.2-1.4,0.7-1.8s1.4-0.7,2.9-0.8v-1.6H3V82.3z
	 M74.9,82.1c-2.9,1.7-5.2,4.3-7,7.8c-1.8,3.5-2.7,7.1-2.7,10.6c0,4.9,1.5,9.3,4.4,13.2c3.5,4.7,8.1,7,14,7c3.6,0,6.9-0.9,9.8-2.7
	c2.9-1.8,5.2-4.5,6.9-8.1c1.7-3.6,2.5-7.1,2.5-10.6c0-5-1.5-9.3-4.5-13.2c-3.6-4.5-8.3-6.7-14.2-6.7C80.8,79.6,77.8,80.5,74.9,82.1z
	 M90.4,86.4c3,4,4.5,9.4,4.5,16.3c0,5.5-0.9,9.4-2.7,11.7c-1.8,2.3-4,3.4-6.8,3.4c-3.7,0-6.6-2.1-8.9-6.2s-3.4-9-3.4-14.6
	c0-3.5,0.5-6.4,1.4-8.6c0.9-2.2,2.2-3.8,3.7-4.7c1.5-0.9,3-1.3,4.5-1.3C85.8,82.4,88.4,83.7,90.4,86.4z"/>
<path d="M110.4,134.1v-1.9c2.9-1,5.2-2.5,6.8-4.5c1.6-2,2.4-4.2,2.4-6.4c0-0.5-0.1-1-0.4-1.4c-0.2-0.3-0.4-0.4-0.6-0.4
	c-0.3,0-1,0.3-2,0.8c-0.5,0.3-1,0.4-1.6,0.4c-1.4,0-2.5-0.4-3.3-1.2c-0.8-0.8-1.2-2-1.2-3.4c0-1.4,0.5-2.6,1.6-3.6s2.4-1.5,3.9-1.5
	c1.9,0,3.5,0.8,5,2.4c1.5,1.6,2.2,3.8,2.2,6.5c0,2.9-1,5.6-3,8.1C118,130.7,114.8,132.7,110.4,134.1z"/>
<path d="M141.6,79.6v8.7c3.3-5.8,6.6-8.7,10-8.7c1.6,0,2.8,0.5,3.9,1.4c1,0.9,1.5,2,1.5,3.3c0,1.1-0.4,2-1.1,2.8
	c-0.7,0.8-1.6,1.1-2.6,1.1c-1,0-2.1-0.5-3.3-1.5c-1.2-1-2.1-1.5-2.7-1.5c-0.5,0-1.1,0.3-1.7,0.8c-1.3,1.2-2.6,3.1-3.9,5.7v18.6
	c0,2.2,0.3,3.8,0.8,4.9c0.4,0.8,1,1.4,2,1.9c0.9,0.5,2.3,0.8,4,0.8v1.5h-19.9v-1.5c2,0,3.5-0.3,4.4-0.9c0.7-0.5,1.2-1.2,1.5-2.2
	c0.1-0.5,0.2-1.9,0.2-4.1V95.8c0-4.5-0.1-7.2-0.3-8.1c-0.2-0.9-0.5-1.5-1-1.9c-0.5-0.4-1.1-0.6-1.8-0.6c-0.9,0-1.9,0.2-3,0.6
	l-0.4-1.5l11.8-4.8H141.6z"/>
<path d="M184.9,115.3c-1.8,2-3.6,3.4-5.4,4.3s-3.7,1.3-5.7,1.3c-4.1,0-7.7-1.8-10.8-5.3s-4.6-8.1-4.6-13.7c0-5.6,1.7-10.7,5.1-15.3
	c3.4-4.6,7.8-6.9,13.2-6.9c3.3,0,6.1,1.1,8.3,3.3v-7.2c0-4.4-0.1-7.2-0.3-8.2c-0.2-1-0.5-1.7-1-2.1c-0.4-0.4-1-0.6-1.7-0.6
	c-0.7,0-1.7,0.2-2.8,0.7l-0.5-1.5l11.3-4.8h1.9v44.9c0,4.6,0.1,7.3,0.3,8.3c0.2,1,0.5,1.7,1,2.1s1,0.6,1.6,0.6c0.7,0,1.7-0.2,3-0.7
	l0.5,1.5l-11.2,4.8h-1.9V115.3z M184.9,112.3v-20c-0.2-1.9-0.7-3.7-1.5-5.3c-0.8-1.6-1.9-2.8-3.3-3.6c-1.4-0.8-2.7-1.2-4-1.2
	c-2.4,0-4.6,1.1-6.5,3.4c-2.5,2.9-3.8,7.2-3.8,12.9c0,5.7,1.2,10.1,3.6,13.1c2.4,3,5.1,4.6,8.1,4.6
	C180.1,116.2,182.5,114.9,184.9,112.3z"/>
<rect x="0.2" y="154.8" width="199.7" height="4.5"/>
</svg>
